<svg id="Layer_6" data-name="Layer 6" xmlns="http://www.w3.org/2000/svg" width="1284.25" height="363.25" viewBox="0 0 1284.25 363.25"><defs><style>.cls-1{opacity:0.62;}.cls-2{fill:#fff;opacity:0.85;}</style></defs><title>image-6</title><g class="cls-1"><path class="cls-2" d="M613.29,210.73a63.58,63.58,0,0,0,53.68-3,69.74,69.74,0,1,1-80.66-95.09,63.81,63.81,0,0,0,27,98.12Z" transform="translate(-28.42 -5.36)"/><circle class="cls-2" cx="731.62" cy="104.62" r="2.62"/><circle class="cls-2" cx="782.6" cy="181.27" r="2.62"/><circle class="cls-2" cx="860.62" cy="248.62" r="2.62"/><circle class="cls-2" cx="966.62" cy="312.62" r="2.62"/><circle class="cls-2" cx="1146.62" cy="123.62" r="2.62"/><circle class="cls-2" cx="1161.62" cy="125.62" r="2.62"/><circle class="cls-2" cx="1188.62" cy="121.62" r="2.62"/><circle class="cls-2" cx="916.62" cy="2.62" r="2.62"/><circle class="cls-2" cx="302.62" cy="102.62" r="2.62"/><circle class="cls-2" cx="110.62" cy="124.62" r="2.62"/><circle class="cls-2" cx="100.62" cy="185.62" r="2.62"/><circle class="cls-2" cx="110.62" cy="196.62" r="2.62"/><circle class="cls-2" cx="120.62" cy="206.62" r="2.62"/><circle class="cls-2" cx="96.62" cy="209.62" r="2.62"/><circle class="cls-2" cx="2.62" cy="320.62" r="2.62"/><circle class="cls-2" cx="645.62" cy="360.62" r="2.62"/><circle class="cls-2" cx="855.62" cy="282.62" r="2.62"/><circle class="cls-2" cx="864.62" cy="264.62" r="2.62"/><circle class="cls-2" cx="612.62" cy="30.62" r="2.62"/><circle class="cls-2" cx="51.62" cy="36.62" r="2.62"/><circle class="cls-2" cx="193.62" cy="212.62" r="2.62"/><circle class="cls-2" cx="313.62" cy="204.62" r="2.62"/><circle class="cls-2" cx="277.62" cy="268.62" r="2.62"/><circle class="cls-2" cx="389.62" cy="144.62" r="2.62"/><circle class="cls-2" cx="721.62" cy="356.62" r="2.62"/><circle class="cls-2" cx="1217.62" cy="272.62" r="2.62"/><circle class="cls-2" cx="1281.62" cy="328.62" r="2.62"/></g></svg>