<svg id="Layer_3" data-name="Layer 3" xmlns="http://www.w3.org/2000/svg" width="1401.02" height="470.23" viewBox="0 0 1401.02 470.23"><defs><style>.cls-1{fill:#73a09a;}.cls-2{fill:#c5e2de;}</style></defs><title>layer-3</title><path class="cls-1" d="M1399.63,735.73q.1-128.34.21-256.67.07-99.06.16-198.13a186.27,186.27,0,0,0-29.9,13.19c-11,6.29-19.36,16.34-30.41,22.5-5.1,2.83-10.83,3.71-16.22,5.82a131.1,131.1,0,0,0-15.88,7.67c-9.09,5-19.1,10.6-25.72,18.8-12,14.91-16.4,33.44-26,49.63a563.36,563.36,0,0,1-32,48.24c-7,9.55-17,14.32-27.85,18.53s-21.48,10.25-33.06,5.55c-11.86-4.82-18.87-15.21-29-22.22-12.22-8.48-25.22-16.37-36.89-25.59-7.19-5.68-12.91-14-18.89-20.89-11.33-13.11-22.93-26.16-33.31-40-2.72-3.64-4.77-7.61-8.09-10.74-6-5.71-13.42-10.22-20.39-14.68-8.68-5.55-19.26-14.31-29.29-17.06-13.16-3.6-28.76-3.31-42.29-4.78-13.92-1.52-28.46-4.21-42.5-3.93-14.35.3-29.2,4.26-43.25,6.85-13.8,2.53-28.18,4.33-41.75,8-11,2.94-22,8.61-32.06,13.83-6.36,3.31-15,7.23-19.08,13.45-2.67,4.05-3.38,9.61-5.15,14.15a70.67,70.67,0,0,0-4.46,16.91c-1.53,11.34-12.45,14.74-22.27,17.73-12,3.67-24.27,6.34-36.18,10.4-17,5.8-34.13,11.42-51.2,16.64-10.38,3.17-20.67,13.57-29.1,20-13.62,10.38-27,21-40.36,31.78-6,4.84-11.79,10.19-18.36,14.26A81.37,81.37,0,0,1,529,506.41c-13.74,2.09-27.23-2.34-41-2.87a234,234,0,0,0-35.1,1.48c-3.29.38-6,1.12-9.08.36-4.49-1.12-9.15-4.11-13.35-6l-22-9.87-42.89-19.26c-8.44-3.8-16.67-5-25.71-7.3-8.62-2.23-18.23-4.71-25.4-10.25a85.07,85.07,0,0,0-24.08-13.22c-5.54-2-12.63-2.85-17.81-5.59-4.67-2.47-9.11-8.21-13-11.71s-12.79-8.82-15.2-13.7c-1.71-3.46-.27-10.92-.27-14.78,0-6.21-.9-13.19,0-19.35.75-5.09,3.19-10.39,4.71-15.29,3.82-12.34,6.51-22.85,8-35.63.54-4.67,2.87-11.42.29-15.09-1.91-2.73-9.23-8.93-12.25-9.09-3.88-.2-11.42,5-14.89,6.55-8.24,3.68-16.45,7.43-24.58,11.33C193.58,322.8,183,328.45,173,336.79c-13,11-28.33,19.74-42.74,28.78-2.82,1.77-7.82,3.66-10,6.24-2.55,3.07-3.79,9.2-5.29,12.84-4.07,9.88-7.81,20-12,29.94L78,423.48H54L34,432v22s-5.46,9.35-10.28,17.39Q11.86,471.84,0,472v24Q0,565.78,0,635.6q0,35.32,0,70.64c0,13.39-1.6,27.9,0,41.21.51,4.2-.77,2.49,2.54,3.3,3.74.92,8.92,0,12.74,0h1378c.86,0,5.63.66,6.27,0C1401.22,749.12,1399.63,737.92,1399.63,735.73ZM229.6,323.22c-4.69,1.13-6.12,2.1-9.85,5.28-1.2,1-4,2.62-4.76,4.06-1,2,.63,5.36-.43,7.32-1.55,2.89-9.19,7.3-12.1,8.87-4.64,2.51-10.08,2.42-15,4.16-5.34,1.88-8.31,7.25-11.94,11.81-5.72,7.19-7.44,12-16.1,15.66a100.17,100.17,0,0,1-14.07,4.27c-7.43,1.91-7.45,3.2-11-3.7,4.92-6.63,9.47-14.92,15.64-20.33,6.59-5.78,14.93-10.1,22.12-15.19,13.45-9.51,28.63-23.28,44.34-28.47l17.2-5.67c3.39-1.12,7.45-3.55,10.37-2.12,5.48,2.67,3,6.83-.8,9.89C239.78,321.82,234,322.17,229.6,323.22Zm734.73,7.87c-.4.2-1.83-.73-2.45-.56-2.55.7-5.91.59-8.62.92-7.73.93-17.26,2.14-25,1-2.72-.41-5.22-2.11-8-2.57-4.2-.68-8.88.56-13.12,1-4,.46-8.31.62-11.32,3.53-4.3,4.16-4.62,7.73-10.74,9.53-12.4,3.64-23.52,3.5-36.36,3.5-5.89,0-11.84-.74-17.32,1.29-6.47,2.39-10.89,5.62-16.29,9.82s-10.14,2.73-16.53,4c-5.87,1.19-13.7,4.57-19.55,4.46-1.51,0-1.55.25-1.54.32a4.4,4.4,0,0,0-1-.8c-1.15-.81-2.09-3.55-2.83-4.82,4.85-4.85,12-8.25,17.75-11.83s11.83-7.5,18-10.71c7.34-3.81,16-8.5,24.28-9.77s15.89,4.36,23.46,3.57c4.59-.49,11-5.12,15.21-7.26,4.58-2.34,9.66-6.74,14.62-8,4.45-1.13,10.16.11,14.83-.14a59.61,59.61,0,0,1,21.25,2.22c6.63,1.88,13,4,19.86,4.15,8.48.24,16.9-.87,25.39-.89C967.51,324.73,965.88,330.31,964.33,331.09Z" transform="translate(0.69 -280.93)"/><path class="cls-1" d="M243.21,319.06c-3.43,2.76-9.22,3.11-13.61,4.16-4.69,1.13-6.12,2.1-9.85,5.28-1.2,1-4,2.62-4.76,4.06-1,2,.63,5.36-.43,7.32-1.55,2.89-9.19,7.3-12.1,8.87-4.64,2.51-10.08,2.42-15,4.16-5.34,1.88-8.31,7.25-11.94,11.81-5.72,7.19-7.44,12-16.1,15.66a100.17,100.17,0,0,1-14.07,4.27c-7.43,1.91-7.45,3.2-11-3.7,4.92-6.63,9.47-14.92,15.64-20.33,6.59-5.78,14.93-10.1,22.12-15.19,13.45-9.51,28.63-23.28,44.34-28.47l17.2-5.67c3.39-1.12,7.45-3.55,10.37-2.12C249.49,311.84,247,316,243.21,319.06Z" transform="translate(0.69 -280.93)"/><path class="cls-1" d="M968.33,323.09c-.82,1.64-2.45,7.22-4,8-.4.2-1.83-.73-2.45-.56-2.55.7-5.91.59-8.62.92-7.73.93-17.26,2.14-25,1-2.72-.41-5.22-2.11-8-2.57-4.2-.68-8.88.56-13.12,1-4,.46-8.31.62-11.32,3.53-4.3,4.16-4.62,7.73-10.74,9.53-12.4,3.64-23.52,3.5-36.36,3.5-5.89,0-11.84-.74-17.32,1.29-6.47,2.39-10.89,5.62-16.29,9.82s-10.14,2.73-16.53,4c-5.87,1.19-13.7,4.57-19.55,4.46-1.51,0-1.55.25-1.54.32a4.4,4.4,0,0,0-1-.8c-1.15-.81-2.09-3.55-2.83-4.82,4.85-4.85,12-8.25,17.75-11.83s11.83-7.5,18-10.71c7.34-3.81,16-8.5,24.28-9.77s15.89,4.36,23.46,3.57c4.59-.49,11-5.12,15.21-7.26,4.58-2.34,9.66-6.74,14.62-8,4.45-1.13,10.16.11,14.83-.14a59.61,59.61,0,0,1,21.25,2.22c6.63,1.88,13,4,19.86,4.15C951.42,324.22,959.84,323.11,968.33,323.09Z" transform="translate(0.69 -280.93)"/><path class="cls-2" d="M243.21,319.06c-3.43,2.76-9.22,3.11-13.61,4.16-4.69,1.13-6.12,2.1-9.85,5.28-1.2,1-4,2.62-4.76,4.06-1,2,.63,5.36-.43,7.32-1.55,2.89-9.19,7.3-12.1,8.87-4.64,2.51-10.08,2.42-15,4.16-5.34,1.88-8.31,7.25-11.94,11.81-5.72,7.19-7.44,12-16.1,15.66a100.17,100.17,0,0,1-14.07,4.27c-7.43,1.91-7.45,3.2-11-3.7,4.92-6.63,9.47-14.92,15.64-20.33,6.59-5.78,14.93-10.1,22.12-15.19,13.45-9.51,28.63-23.28,44.34-28.47l17.2-5.67c3.39-1.12,7.45-3.55,10.37-2.12C249.49,311.84,247,316,243.21,319.06Z" transform="translate(0.69 -280.93)"/><path class="cls-2" d="M968.33,323.09c-.82,1.64-2.45,7.22-4,8-.4.2-1.83-.73-2.45-.56-2.55.7-5.91.59-8.62.92-7.73.93-17.26,2.14-25,1-2.72-.41-5.22-2.11-8-2.57-4.2-.68-8.88.56-13.12,1-4,.46-8.31.62-11.32,3.53-4.3,4.16-4.62,7.73-10.74,9.53-12.4,3.64-23.52,3.5-36.36,3.5-5.89,0-11.84-.74-17.32,1.29-6.47,2.39-10.89,5.62-16.29,9.82s-10.14,2.73-16.53,4c-5.87,1.19-13.7,4.57-19.55,4.46-1.51,0-1.55.25-1.54.32a4.4,4.4,0,0,0-1-.8c-1.15-.81-2.09-3.55-2.83-4.82,4.85-4.85,12-8.25,17.75-11.83s11.83-7.5,18-10.71c7.34-3.81,16-8.5,24.28-9.77s15.89,4.36,23.46,3.57c4.59-.49,11-5.12,15.21-7.26,4.58-2.34,9.66-6.74,14.62-8,4.45-1.13,10.16.11,14.83-.14a59.61,59.61,0,0,1,21.25,2.22c6.63,1.88,13,4,19.86,4.15C951.42,324.22,959.84,323.11,968.33,323.09Z" transform="translate(0.69 -280.93)"/></svg>