<svg id="Layer_5" data-name="Layer 5" xmlns="http://www.w3.org/2000/svg" width="1236.91" height="96.73" viewBox="0 0 1236.91 96.73"><defs><style>.cls-1{fill:#fff;}.cls-2{fill:#e6e7e8;}</style></defs><title>layer-5</title><path class="cls-1" d="M57,155.41H224.45s-6.1-49.53-44.86-37c0,0-5.31-16-21-15.35,0,0-26.17-53.36-64.2-4.19,0,0-27-8.27-27.52,17.84C66.92,116.75,40.11,128.21,57,155.41Z" transform="translate(-51.42 -58.68)"/><path class="cls-2" d="M63.21,155.41H230.64s-6.1-49.53-44.86-37c0,0-5.31-16-21-15.35,0,0-26.17-53.36-64.2-4.19,0,0-27-8.27-27.52,17.84C73.1,116.75,46.29,128.21,63.21,155.41Z" transform="translate(-51.42 -58.68)"/><path class="cls-1" d="M1279.51,107.24H1174.37s3.83-31.1,28.17-23.21c0,0,3.33-10.07,13.16-9.64,0,0,16.43-33.51,40.31-2.63,0,0,16.94-5.19,17.28,11.2C1273.29,83,1290.13,90.15,1279.51,107.24Z" transform="translate(-51.42 -58.68)"/><path class="cls-2" d="M1284.82,107.24H1179.69s3.83-31.1,28.17-23.21c0,0,3.33-10.07,13.16-9.64,0,0,16.43-33.51,40.31-2.63,0,0,16.94-5.19,17.28,11.2C1278.61,83,1295.44,90.15,1284.82,107.24Z" transform="translate(-51.42 -58.68)"/></svg>