<svg id="Layer_4" data-name="Layer 4" xmlns="http://www.w3.org/2000/svg" width="1400.7" height="617.74" viewBox="0 0 1400.7 617.74"><defs><style>.cls-1{fill:#abcec8;}.cls-2{fill:#cae5e1;}</style></defs><title>layer-4</title><path class="cls-1" d="M0,330c5.62-4.09,12.54-10.46,19.34-12.27,9.4-2.5,15.46,6.78,21-5.14,2.16-4.63,4.87-10.05,5.54-15.17.65-4.94-2.63-9.15-2.33-14C44,275.72,58,272,63.95,269c5-2.53,11.36-6.88,17.05-7.84,8-1.35,10.13,9.9,13.46,15.64,2.82,4.87,6.83,15.33,11.54,18.62,5.17,3.6,13.84,2.23,19.33,6.13s7,15.37,8.5,21.61c1.27,5.36-.12,7.16,3.29,11.55,5.25,6.76,11.33,13,17.19,19.19,1.64,1.74,4.14,5.69,6.34,6.67,2.79,1.25-.08,1.19,3.5,0,12.31-4.11,14.12-27.05,16.87-37.13,3.19-11.69,4.91-25.37,9.76-36.49,5.1-11.68,14.58-22.81,21.43-33.54,5.28-8.26,11.3-15.13,12.72-24.83l3.61-24.73c.89-6.07.47-15.39,3.06-21,1.49-3.2,3.73-3.54,7.43-5.3l23.36-11.09c11.06-5.25,22.09-10.52,33.63-14.68,9.44-3.4,15.86-4.63,25.49-1.31,6.06,2.09,12,3.19,15.12,8.77,4.15,7.55,7.72,15.51,11.48,23.27,2,4.21,3.55,8.92,6.63,12.42,10.18,11.53,25.26,20.55,37.44,29.85,8.19,6.25,11.27,13,16.47,22.14,6.13,10.76,15.19,22.3,19.34,34,1.45,4.08,1.51,9.26,2.2,13.51l4.25,26.08c1.05,6.46,1.46,13.5,3.23,19.81,1.09,3.9,3.61,6.94,5.88,10.39l11,16.63,16.14-14.73c3.69-3.36,8.74-6.74,11.55-10.86s4.44-9.91,6.5-14.46q6-13.27,12.21-26.47c7.16-15.23,13.67-33.73,24.27-47A13.63,13.63,0,0,1,528,251c4.8-3.44,9.39-6.78,14-10.76,7.68-6.61,16.93-6.51,26.64-7.94,7.13-1.05,15.28-3.49,22.5-3.27,7.77.23,16.29,3.26,23.91,4.79,7.25,1.45,6.54,2.63,9.45,9.62,3.48,8.35,6.27,17.67,10.66,25.57,2.14,3.86,5.76,6.19,9.28,9a254.26,254.26,0,0,0,28.4,20c10.78,6.42,20.31,9.49,32.57,11.24,10.55,1.5,21.82,5.52,30.22,12.3,9.06,7.31,17.21,16.1,25.69,24.06l40.89,38.41c8.77,8.24,19.72,10.19,31.13,14.09,5.34,1.82,6.79,2.92,11.83,1.14q13.12-4.65,26.22-9.37c17.6-6.36,37.86-10.63,47.86-28.31,4.16-7.35,5.67-17.1,7.82-25.16q2.56-9.6,4.94-19.25c3.86-15.81,7.58-31.65,11.37-47.48,3.12-13,8.77-25.33,13.57-37.81,2.07-5.38,2.84-7.73,7-11.46,6.71-6,13.25-13.3,20.66-18.36,1.72-1.17,1.64-1.66,3.39-1.81,3.6-.32,9.26,2.49,12.75,3.43,5.74,1.54,10.77,1.2,13.39,6.28,4.08,7.92,6.67,17,9.91,25.33,1.94,5,3.49,13.54,6.92,17.68,1.42,1.72,5.15,3,7,4.14,4.45,2.61,8.9,5.2,13.34,7.83,4.24,2.52,10.51,11.6,15.41,10.22,2.86-.8,7-7.37,9.08-9.52,3.78-3.93,8.22-7.75,11.42-12.19,5-6.88,6.94-16,11.19-23.47,2.35-4.1,3.66-6.05,8.35-7,3-.65,11.72-2.41,14.64-1,3.63,1.8,7,9.28,9.43,12.68,7.76,11.06,14.84,23.67,24,33.59,10.65,11.52,25.55,20.75,34.66,33.51,5,7,7.46,17,10.47,25,1.45,3.84,3,13.08,6.15,15.63s13.12,3,17,3.85L1253,353c25.6,5.79,50.6,9.72,76.63,13.31l57.16,7.89c2.17.3,11.3.1,12.86,1.77.53.57,0,1.52.28,2.42,1.76,6.51,0,16,0,22.74l0,41.89-.18,236.91-.06,77.93c0,7.69,1.61,8.15-5.57,8.15H14.49c-3.63,0-8.84,1.28-10.19-1.42-2.07-4.14-.14-14.47-.19-19l-.37-37.34L2.65,597.91.4,370.11Z" transform="translate(0 -148.57)"/><path class="cls-2" d="M194.77,306.73c-1.17-5.53,2-18.06,4.95-22.8s8.05-9.42,11.65-14c9.11-11.6,19.3-22.58,24.94-36.33,5.21-12.68,3.51-26.57,4.82-39.81.23-2.31,1.73-8.59,4-9.82,2.7-1.45,7.74-.34,11.35-2.49,8.06-4.81,16-9.83,24.05-14.78a64.49,64.49,0,0,1,20.1-8.35c3.08-.79,7.82-3.16,11-2.91,4.2.33,7,3.9,2.91,6.85-2.63,1.91-8.23,1.51-11.33,2.19-3.73.82-5.05,1.81-8.24,4.28-2.81,2.18-7.27,4.71-9,7.91a14.71,14.71,0,0,0-1.09,8.22c.35,2,2.23,4.09,1.43,6.12-2.39,6.05-5.49-1.18-7.41-2.5-2.32-1.61-4.69-1.76-7.93-.5-2.9,1.13-5.56,3.9-8.19,5.57-2.1,1.33-7.74,3.16-8.89,5.28-1.55,2.85,2.53,9.41,3.84,12.22,1.64,3.52,8.32,13,7.3,16.75-1.34,4.93-5.94,2-9.18,3.2-2.78,1-4.31,3.59-5.59,5.89-4.44,8-4.29,16.62-6.57,25.3-.85,3.26-2.17,7.18-5.92,8.51-3.18,1.13-9.06-3.4-11.46-.4-1.61,2-.05,7-1.69,9.7-1.45,2.39-4.5,4.11-6.5,6a37,37,0,0,1-9.68,7.11c-5.58,2.73-4.89,2.47-7,8.06C200,305,199.18,307.55,194.77,306.73Z" transform="translate(0 -148.57)"/><path class="cls-2" d="M492.5,342.32c3.5-5.35,9.78-11.26,10.18-17.46.22-3.46-1.46-7.15-.13-10.59,1.07-2.76,4.47-5.59,6.29-7.89,3.29-4.17,6.65-8.11,9.09-12.8s7.83-12.2,8.5-17.43c.5-3.91-3.84-9.06-2.41-12.62,1.06-2.62,6.58-5.92,8.71-7.71A58.87,58.87,0,0,1,540.5,250c7.13-4.24,13-7.21,21.25-7.22,6.26,0,12.49.31,18.75,0-6.18,2.73-12.3,5.75-18.64,8.05-4.62,1.68-8,1.51-8.46,6.61-.42,4.45.6,9.53.6,14.06a49.88,49.88,0,0,1-5.13-1.71c-.63-.29-3.68-2.61-3.85-2.64-1.45-.3-7.42,1.27-8.52,3.1-1.55,2.59,0,10.23,0,13.33s1,7.77,0,10.78c-1.06,3.28-4.76,5.19-8,6.26-5.09,1.66-5.92,0-6,5.52,0,3.86,1.26,11.83-2.9,14-3.35,1.73-6.89-1.37-10.07-2.85,2.71,8.22,6.77,15.32,4.54,23.77-1.6,6.09-3.7,3.25-9.71,3.52C499.53,344.77,497.14,344.57,492.5,342.32Z" transform="translate(0 -148.57)"/><path class="cls-2" d="M1115,231c-2.4-.16-10.65-1.53-12.56.21-1.44,1.31-1.87,6.76-2.37,8.58-1.52,5.5-3.44,10.66-7,15.26-4.38,5.61-10.73,9.44-15.86,14.32-5.81,5.53-5.19,7.74-5.19,15.63,0,2.47,16-10.56,14.5-10.5,2.61-.1,4.61,7.34,9.35,3.16,2.93-2.59-.32-8.66.65-12.16,1.5-5.42,7.47-7.25,10.79-10.85,2.39-2.6,1.08-3.85,1.21-7.65.09-2.7.55-6.74,2-9C1112.29,235.2,1116.06,235.22,1115,231Z" transform="translate(0 -148.57)"/></svg>