<svg id="Layer_2" data-name="Layer 2" xmlns="http://www.w3.org/2000/svg" width="1400.3" height="395.18" viewBox="0 0 1400.3 395.18"><defs><style>.cls-1{fill:#3c6864;}.cls-2{fill:#b3d8d4;}</style></defs><title>layer-2</title><path class="cls-1" d="M-.31,553.27c22-8,43.86-16.07,65.64-24.55,4.33-1.69,5.84-2.65,10.25-1.6,7.28,1.73,16.18,4,21.75,9.28,2.76,2.64,2.83,5.89,4.06,9.31a81.74,81.74,0,0,0,6.55,13.3c2.06,3.54,4.49,9.63,8.13,11.69,4.7,2.66,10.83,4,15.88,5.88L154.57,585a136.54,136.54,0,0,0,20.74,6.32L220,600.39l19,3.88c3.44.7,4.4,1.51,7.16-.58,11.13-8.45,22.44-16.74,32.78-26.17,17.3-15.8,29.46-37.65,40.49-58q3.69-6.83,7.24-13.73c.83-1.61,1.61-4.3,2.88-5.63,1.8-1.88,5.49-3.15,7.72-4.43q20.33-11.65,40.72-23.19c9.65-5.45,19.27-11.66,29.45-16.1,12.66-5.52,25-11.71,37.43-17.8,2.8-1.38,6.78-4.38,9.89-4.69,3.91-.39,9.23,1.59,13.06,2.25l45,7.77c2.8.48,5.6,1.3,8.4,1,7.92-.84,15.73-2.94,23.77-1.74,3.07.46,4.86,2.1,7.56,3.25,3.17,1.35,6.84,1.77,10.2,2.32,9.13,1.5,18.63,2.44,27.3,5.86s12.42,10.26,16.53,18.18c4.48,8.65,8.37,17.61,12,26.63,4.06,10,7.81,20.15,11.69,30.22l5.1,13.26,39.8-78.27A23,23,0,0,0,678,457l4.28-26.35c2.12-13,1.27-26.27,1.27-39.47,0-13.87-1.39-27.52-2.59-41.34,10,6.36,20.71,14,32,17.86,1.66.56,3.25.48,4.65,1.54,2.12,1.62,3.52,4.74,4.74,7a197.46,197.46,0,0,1,10.31,24c2.42,6.5,4.53,13.09,6.68,19.68,2.4,7.37,4.23,15.3,7.29,22.42,1.85,4.3,5.94,8.12,8.83,11.8,3.67,4.66,7.5,12.46,13.58,14.11,7.65,2.07,16.83,1,24.33-1.14,3.38-1,7-2.3,9.65-4.73,1.94-1.79,3.5-4.05,5.37-5.94,10.83-11,23-20.77,34.89-30.55,6.81-5.6,14.54-10,22.09-14.53,5.14-3.09,10.62-7,16.36-8.88.41-.13,1.44-.67,1.9-.47s.22.81.53,1a6.76,6.76,0,0,0,2.27,1c7.11,1.9,13.4,7,19,11.61,7.17,5.92,14.05,12.17,21.12,18.2,6.33,5.4,12.77,11,20,15.23,5.45,3.2,10.83,3.33,17,3.71,9.15.57,18.33,1,27.42,2.27,5.79.79,14.11,1.43,18.27,6.12,5.23,5.9,9.05,13.64,13.07,20.38q2.81,4.73,5.57,9.49c.44.75,1.42,3.41,2.23,3.82,1,.51,4.55-.62,5.61-.77q5.82-.84,11.62-1.81c8.48-1.44,17.26-2.83,25.33-5.9,14.34-5.47,27.48-13.6,41.54-19.65,2.68-1.16,5.57-.68,8.52-.66l21.67.09c5,0,9.93-.41,14.8.79l53.67,13.22L1300,501.63l76.12,18.74,20.48,5c3,.74,3.43.17,3.43,3.21l-.1,57.81-.16,90.12-.11,63.47c0,5,.75,4.81-3.81,4.81H6.12c-1.45,0-3.58.41-5,0s-.6.53-1.12-1c-.62-1.84,0-5,0-6.91l0-12.77-.06-37.49-.15-89.1Z" transform="translate(0.31 -349.84)"/><path class="cls-2" d="M345,512.34c6.85-6.47,13.38-14.5,21.57-19.23l19.06-11c3.32-1.92,7.51-5.46,11.26-6.27,2.79-.6,6.39,0,9.22,0,2.61,0,6.74.83,9.22,0,1.41-.47,2.65-2.32,3.72-3.42q4.28-4.4,8.59-8.78a72.81,72.81,0,0,1,15.07-12c3.09-1.86,6.43-4.53,9.83-5.79,1.61-.59,2.43-.27,4.29.07,13.38,2.48,26.68,4.73,40.16,6.63-2,1.82-4,4.51-6.3,5.85-1.57.92-3,.55-5,.47l-11.51-.49c-1.73-.07-5.92-1.08-7.52-.32-1.3.62-2.78,4.43-3.53,5.66-1.56,2.58-3,6.09-5,8.3-2.6,2.79-7.56,5.22-11.32,6.13l-10.87,2.65c-1.55.38-5,.56-6.21,1.59-.89.75-1.49,3.36-2.1,4.4-1,1.72-2.17,3.56-4.12,4.26-4.17,1.51-10.06.54-14.42.67-6.24.19-13.54,1.18-18.13,5.57-4,3.82-8,7.66-12,11.42-2,1.82-4.74,5.74-7.22,6.71-2.24.87-6.56,0-8.93,0-3.63,0-7.69.52-11.29,0C349.14,515.11,347.12,513.54,345,512.34Z" transform="translate(0.31 -349.84)"/></svg>