<svg xmlns="http://www.w3.org/2000/svg" width="1400.52" height="431.3" viewBox="0 0 1400.52 431.3"><defs><style>.cls-1{fill:#183534;}</style></defs><title>layer-1</title><g id="Layer_1" data-name="Layer 1"><path class="cls-1" d="M0,647l38.89-18.63,24.57-11.77c2.68-1.28,5.66-2.35,8.08-4.06,4.22-3,8.07-6.74,12-10.06l21.77-18.19,40.66-34c1.73-1.45,2.92-3,5-3.22,4.62-.42,10.1,1,14.7,1.43l57.38,5.6,46.46,4.53c4.21.41,3.44.55,4,5l3.24,27.89c.33,2.86,0,7,1.13,9.7.47,1.18,1.11,1.4,2.33,2.21l22.42,14.76c5.28,3.48,10.62,8,16.32,10.75,4.89,2.37,10.79,3.53,15.94,5.22l28,9.16c3.29,1.08,8.66,4.15,12,3.14,2.57-.78,5.26-2.9,7.61-4.19l12.34-6.8L419,622.19a21,21,0,0,0,6.74-5.31l15.77-17.81,34.08-38.49c2.11-2.39,4.89-3.48,7.7-5l24.4-13.27L530.5,529.9a32.89,32.89,0,0,1,17-4.12c5.44.18,8.61,3.25,12.89,6.11,4.78,3.19,9.69,6.19,14.6,9.17,2.85,1.72,7.42,3.37,9.73,5.79,1.16,1.21,1.68,3.61,2.32,5.17,5.24,12.72,10.27,25.5,16.19,37.92l12.34,25.92c.93,1.95,1.81,5.41,3.32,7,.84.87,2.73,1.31,3.85,1.79l25.76,11.12,11.35,4.9a13.66,13.66,0,0,0,3.38,1.32c1.79.22,4.05-.4,5.83-.58l12.07-1.2q15.62-1.56,31.23-3.14c13.31-1.36,26.35-1.74,38.89-6.52,18.88-7.21,37.45-15.26,56.07-23.11,3.81-1.61,7.64-3.61,11.65-4.67,6-1.59,12.34-2.48,18.46-3.66q28.71-5.51,57.46-10.83c3.29-.61,7-1.85,10.34-1.83,6.88,0,14.34,2.14,21.13,3.15,11.49,1.72,23.45,2.49,34.56,6l51.84,16.27,23.62,7.42c1.52.48,3.81.76,5.17,1.62s2.08,2.64,3,3.93A113.08,113.08,0,0,0,1054,637.2c2.63,2.87,4.12,4.12,7.95,3.37,5.06-1,10.06-2.49,15-3.91,2.52-.72,6.85-1.13,9-2.67,1.64-1.17,3-4.23,4.17-5.84l8.32-11.64,8.32-11.64c1.18-1.65,3.55-3.88,4.17-5.84.45-1.42.08-3.64.13-5.12q.25-6.87.91-13.72c1.19-12.42,3.09-25.24,7.89-36.84,2.6-6.29,6.62-11.46,10.7-16.87q7-9.24,14.15-18.3c2.43-3.07,5.4-6.08,7.42-9.44s2.64-7.68,4-11.33c4.3-11.81,12.08-19.79,24-23.84,11.15-3.8,22.95-5.85,34.55-7.68,15.52-2.45,30.6-4.4,45.94-8A174.67,174.67,0,0,0,1295.17,436c11.45-5.38,22.69-11.31,34.39-16.12,3.38-1.39,6.75-2.81,10.43-2.91,5.08-.13,10.19,0,15.28,0,6.54,0,13.57-1,19.85,1l13.64,4.38,6.41,2.06c1,.33,3.3.6,4.13,1.33,1,.86.7,1.48.7,3.12V759.22c0,1.47.69,6-.38,6.78s-4.83,0-6,0H4.31c-.61,0-3.82.46-4.29,0-.73-.71,0-5.87,0-6.83q0-11.27,0-22.54Q0,691.81,0,647Z" transform="translate(0.31 -335)"/><path class="cls-1" d="M165.53,568.58l2-42.38L146,535.47l12.91-22.18L141,515.93s26.16-18.21,26.49-18.54-10.6-2.65-10.6-2.65,14.57-13.24,16.22-12.58S193,507,193,507l-14.49-3L193.25,525l-18.12,1.9-4.64,41.72Z" transform="translate(0.31 -335)"/><path class="cls-1" d="M233.95,579.84l-2-42.38,21.52,9.27-12.91-22.18,17.88,2.65S232.29,509,232,508.65s10.6-2.65,10.6-2.65S228,492.76,226.33,493.42s-19.87,24.83-19.87,24.83l14.49-3L205.32,537.6l19,.51L229,579.84Z" transform="translate(0.31 -335)"/><path class="cls-1" d="M493.11,562.26l-2.89-19.95-9.2,6.26,4-11.51-8.1,2.85s10.56-10.85,10.68-11a47.06,47.06,0,0,0-5.18-.28s5.6-7.49,6.43-7.33,11.5,9.79,11.5,9.79l-7-.08,6.34,11h-5.86l1.6,19.88Z" transform="translate(0.31 -335)"/><path class="cls-1" d="M568.2,547.43l1.44-30.77L554,523.39l9.38-16.11-13,1.92s19-13.22,19.23-13.46-7.69-1.92-7.69-1.92,10.58-9.62,11.78-9.14,14.42,18,14.42,18l-10.52-2.16L591,519.79l-15.86-2.65-3.37,30.29Z" transform="translate(0.31 -335)"/><path class="cls-1" d="M457,588l-1.42-20.1L446,573.49l4.86-11.18-8.29,2.24s11.33-10,11.46-10.22a47.06,47.06,0,0,0-5.15-.66s6.14-7.06,7-6.84,10.75,10.61,10.75,10.61l-7-.6,5.52,11.39-5.85-.42.14,19.94Z" transform="translate(0.31 -335)"/><path class="cls-1" d="M432.14,615.57l.95-20.17-10.24,4.41L429,589.26l-8.51,1.26s12.45-8.66,12.6-8.82a47.14,47.14,0,0,0-5-1.26s6.93-6.3,7.72-6,9.45,11.82,9.45,11.82l-6.89-1.42,4.15,12-5.77-1.11-2.21,19.85Z" transform="translate(0.31 -335)"/><path class="cls-1" d="M1178.08,487.21l2-42.38-21.52,9.27,12.91-22.18-17.88,2.65s26.16-18.21,26.49-18.54-10.6-2.65-10.6-2.65,14.57-13.24,16.22-12.58,19.87,24.83,19.87,24.83l-14.49-3,14.72,20.95-18.12,1.9L1183,487.21Z" transform="translate(0.31 -335)"/><path class="cls-1" d="M1341.4,444l-2.5-53.43L1366,402.24l-16.28-28,22.54,3.34s-33-23-33.4-23.38,13.36-3.34,13.36-3.34-18.37-16.7-20.46-15.86-25,31.31-25,31.31l18.26-3.76-19.71,28.16,24,.65,5.84,52.6Z" transform="translate(0.31 -335)"/><path class="cls-1" d="M733.63,646.95l1.44-30.77-15.63,6.73,9.38-16.11-13,1.92s19-13.22,19.23-13.46-7.69-1.92-7.69-1.92,10.58-9.62,11.78-9.14,14.42,18,14.42,18l-10.52-2.16,13.4,19.24-15.86-2.65-3.37,30.29Z" transform="translate(0.31 -335)"/><path class="cls-1" d="M43.65,631.34l1.44-30.77L29.47,607.3l9.38-16.11-13,1.92s19-13.22,19.23-13.46-7.69-1.92-7.69-1.92,10.58-9.62,11.78-9.14,14.42,18,14.42,18l-10.52-2.16,13.4,19.24L50.62,601l-3.37,30.29Z" transform="translate(0.31 -335)"/><path class="cls-1" d="M879.65,600.7l2.89-19.95,9.2,6.26-4-11.51,8.1,2.85s-10.56-10.85-10.68-11a47.06,47.06,0,0,1,5.18-.28s-5.6-7.49-6.43-7.33-11.5,9.79-11.5,9.79l7-.08-6.34,11h5.86l-1.6,19.88Z" transform="translate(0.31 -335)"/><path class="cls-1" d="M806.86,621.4l-1.42-20.1-9.64,5.57,4.86-11.18-8.29,2.24s11.33-10,11.46-10.22a47.06,47.06,0,0,0-5.15-.66s6.14-7.06,7-6.84,10.75,10.61,10.75,10.61l-7-.6,5.52,11.39-5.85-.42.14,19.94Z" transform="translate(0.31 -335)"/><path class="cls-1" d="M776.49,631.34l.95-20.17-10.24,4.41L773.34,605l-8.51,1.26s12.45-8.66,12.6-8.82a47.14,47.14,0,0,0-5-1.26s6.93-6.3,7.72-6S789.57,602,789.57,602l-6.89-1.42,4.15,12-5.77-1.11-2.21,19.85Z" transform="translate(0.31 -335)"/><path class="cls-1" d="M1072.63,642.15l1.44-30.77-15.63,6.73,9.38-16.11-13,1.92s19-13.22,19.23-13.46-7.69-1.92-7.69-1.92,10.58-9.62,11.78-9.14,14.42,18,14.42,18l-10.52-2.16,13.4,19.24-15.86-2.65-3.37,30.29Z" transform="translate(0.31 -335)"/><path class="cls-1" d="M1056.2,646.95,1059.1,627l9.2,6.26-4-11.51,8.1,2.85s-10.56-10.85-10.68-11a47.06,47.06,0,0,1,5.18-.28s-5.6-7.49-6.43-7.33-11.5,9.79-11.5,9.79l7-.08-6.34,11h5.86l-1.6,19.88Z" transform="translate(0.31 -335)"/><path class="cls-1" d="M1217.84,464.51l2.71-20,9.26,6.18-4.13-11.47,8.13,2.77s-10.66-10.75-10.79-10.93a47.06,47.06,0,0,1,5.18-.33s-5.67-7.44-6.5-7.27-11.41,9.9-11.41,9.9l7-.15-6.24,11,5.86,0-1.41,19.89Z" transform="translate(0.31 -335)"/></g></svg>